<?xml version="1.0" encoding="UTF-8"?>
<!DOCTYPE svg PUBLIC "-//W3C//DTD SVG 1.1//EN" "http://www.w3.org/Graphics/SVG/1.1/DTD/svg11.dtd">
<svg xmlns="http://www.w3.org/2000/svg" version="1.1" width="72px" height="123px" style="shape-rendering:geometricPrecision; text-rendering:geometricPrecision; image-rendering:optimizeQuality; fill-rule:evenodd; clip-rule:evenodd" xmlns:xlink="http://www.w3.org/1999/xlink">
<g><path style="opacity:1" fill="#eac3c0" d="M 50.5,33.5 C 41.7394,30.8436 32.7394,29.8436 23.5,30.5C 32.9024,27.4706 41.9024,28.4706 50.5,33.5 Z"/></g>
<g><path style="opacity:1" fill="#cd7a75" d="M 23.5,30.5 C 27.1667,31.1667 30.8333,31.8333 34.5,32.5C 29.3054,32.8205 24.3054,32.4872 19.5,31.5C 20.5676,30.5655 21.901,30.2322 23.5,30.5 Z"/></g>
<g><path style="opacity:1" fill="#fcfdfc" d="M 53.5,32.5 C 54.8333,33.1667 54.8333,33.1667 53.5,32.5 Z"/></g>
<g><path style="opacity:1" fill="#e7c7c3" d="M 52.5,34.5 C 54.0269,34.427 55.0269,35.0937 55.5,36.5C 53.9731,36.573 52.9731,35.9063 52.5,34.5 Z"/></g>
<g><path style="opacity:1" fill="#fafafa" d="M 57.5,36.5 C 58.6226,35.2426 59.2893,35.5759 59.5,37.5C 59.1667,37.5 58.8333,37.5 58.5,37.5C 58.5,36.8333 58.1667,36.5 57.5,36.5 Z"/></g>
<g><path style="opacity:1" fill="#f93025" d="M 23.5,30.5 C 32.7394,29.8436 41.7394,30.8436 50.5,33.5C 51.4916,33.3284 52.1583,33.6618 52.5,34.5C 52.9731,35.9063 53.9731,36.573 55.5,36.5C 55.5,36.8333 55.5,37.1667 55.5,37.5C 52.0296,37.7105 52.0296,38.8771 55.5,41C 54.5842,41.2784 53.9175,41.7784 53.5,42.5C 48.4122,36.9072 42.0788,33.5738 34.5,32.5C 30.8333,31.8333 27.1667,31.1667 23.5,30.5 Z"/></g>
<g><path style="opacity:1" fill="#fafafa" d="M 59.5,38.5 C 59.5,38.1667 59.5,37.8333 59.5,37.5C 61.4241,37.7107 61.7574,38.3774 60.5,39.5C 60.5,38.8333 60.1667,38.5 59.5,38.5 Z"/></g>
<g><path style="opacity:1" fill="#e7e2e1" d="M 19.5,31.5 C 24.3054,32.4872 29.3054,32.8205 34.5,32.5C 42.0788,33.5738 48.4122,36.9072 53.5,42.5C 58.8726,50.2486 59.8726,58.582 56.5,67.5C 55.7281,68.6935 54.7281,69.6935 53.5,70.5C 53.5,70.1667 53.5,69.8333 53.5,69.5C 53.5,69.1667 53.5,68.8333 53.5,68.5C 54.3382,68.1583 54.6716,67.4916 54.5,66.5C 57.0382,62.5996 57.8716,58.2663 57,53.5C 56.6667,55.1667 56.3333,56.8333 56,58.5C 55.7555,52.7603 53.7555,47.7603 50,43.5C 49.5,45.3333 48.3333,46.5 46.5,47C 50.7891,51.3518 50.4558,55.1851 45.5,58.5C 45.1667,57.1667 44.8333,57.1667 44.5,58.5C 42.3796,57.5967 42.0462,56.2633 43.5,54.5C 45.6618,52.8311 45.9952,50.8311 44.5,48.5C 44.1667,48.5 43.8333,48.5 43.5,48.5C 43.7497,46.326 44.7497,44.6594 46.5,43.5C 47.8333,43.1667 47.8333,42.8333 46.5,42.5C 45.5084,42.6716 44.8417,42.3382 44.5,41.5C 47.1667,41.1667 47.1667,40.8333 44.5,40.5C 44.1583,39.6618 43.4916,39.3284 42.5,39.5C 40.6061,36.8133 39.9394,36.8133 40.5,39.5C 40.1667,39.5 39.8333,39.5 39.5,39.5C 38.5084,39.3284 37.8417,39.6618 37.5,40.5C 36.8333,40.5 36.5,40.8333 36.5,41.5C 35.8333,41.5 35.5,41.8333 35.5,42.5C 33.0536,43.2035 30.7203,43.5368 28.5,43.5C 27.609,42.8902 26.609,42.5569 25.5,42.5C 25.5,42.8333 25.5,43.1667 25.5,43.5C 24.1667,43.8333 24.1667,44.1667 25.5,44.5C 25.5,44.8333 25.5,45.1667 25.5,45.5C 24.209,45.2627 23.209,45.596 22.5,46.5C 21.1667,45.1667 19.8333,43.8333 18.5,42.5C 16.901,42.2322 15.5676,42.5655 14.5,43.5C 12.9582,44.3007 11.2915,44.634 9.5,44.5C 12.2837,42.1799 15.617,41.0132 19.5,41C 17.1167,40.935 16.45,40.1017 17.5,38.5C 15.8333,37.1667 14.1667,35.8333 12.5,34.5C 14.4872,32.6726 16.8205,31.6726 19.5,31.5 Z M 42.5,39.5 C 41.8333,39.5 41.1667,39.5 40.5,39.5C 39.9394,36.8133 40.6061,36.8133 42.5,39.5 Z M 22.5,36.5 C 22.5,37.1667 22.8333,37.5 23.5,37.5C 22.2789,38.4646 20.9456,38.298 19.5,37C 20.448,36.5172 21.448,36.3505 22.5,36.5 Z M 22.5,36.5 C 26.6463,35.353 30.9796,35.1864 35.5,36C 31.4155,36.2332 27.4155,36.7332 23.5,37.5C 22.8333,37.5 22.5,37.1667 22.5,36.5 Z M 28.5,43.5 C 30.7203,43.5368 33.0536,43.2035 35.5,42.5C 35.631,43.2389 35.4643,43.9056 35,44.5C 32.9587,44.8018 30.7921,44.4684 28.5,43.5 Z"/></g>
<g><path style="opacity:1" fill="#453e41" d="M 25.5,42.5 C 23.8042,42.3146 22.4709,41.4813 21.5,40C 25.8576,37.6283 30.5243,36.9616 35.5,38C 32.4927,38.8136 29.4927,39.4803 26.5,40C 25.7476,40.6708 25.4142,41.5041 25.5,42.5 Z"/></g>
<g><path style="opacity:1" fill="#342c2e" d="M 42.5,40.5 C 43.9988,42.4529 43.6655,44.1196 41.5,45.5C 41.9424,46.7387 42.6091,47.7387 43.5,48.5C 43.8333,48.5 44.1667,48.5 44.5,48.5C 45.9952,50.8311 45.6618,52.8311 43.5,54.5C 42.8333,54.5 42.1667,54.5 41.5,54.5C 41.5674,53.0413 41.2341,51.7079 40.5,50.5C 41.0431,50.44 41.3764,50.1067 41.5,49.5C 40.3112,48.5713 38.9778,48.238 37.5,48.5C 36.391,48.4431 35.391,48.1098 34.5,47.5C 33.4476,45.3449 34.1143,45.0116 36.5,46.5C 36.8486,42.818 38.8486,40.818 42.5,40.5 Z"/></g>
<g><path style="opacity:1" fill="#686062" d="M 18.5,42.5 C 17.548,43.452 16.548,44.452 15.5,45.5C 14.7025,45.0431 14.3691,44.3764 14.5,43.5C 15.5676,42.5655 16.901,42.2322 18.5,42.5 Z"/></g>
<g><path style="opacity:1" fill="#1c1518" d="M 18.5,42.5 C 19.8333,43.8333 21.1667,45.1667 22.5,46.5C 22.5,47.1667 22.5,47.8333 22.5,48.5C 21.0222,48.238 19.6888,48.5713 18.5,49.5C 18.6236,50.1067 18.9569,50.44 19.5,50.5C 19.1667,51.1667 18.8333,51.8333 18.5,52.5C 17.609,53.1098 16.609,53.4431 15.5,53.5C 16.1495,51.5648 16.4828,49.5648 16.5,47.5C 14.1432,47.6633 11.8098,47.4966 9.5,47C 8.40191,46.2303 8.40191,45.397 9.5,44.5C 11.2915,44.634 12.9582,44.3007 14.5,43.5C 14.3691,44.3764 14.7025,45.0431 15.5,45.5C 16.548,44.452 17.548,43.452 18.5,42.5 Z"/></g>
<g><path style="opacity:1" fill="#f92620" d="M 55.5,37.5 C 57.8333,39.5 60.1667,41.5 62.5,43.5C 67.5958,52.3535 67.7625,61.3535 63,70.5C 61.669,72.9962 59.8356,74.9962 57.5,76.5C 56.8106,75.2264 55.9772,75.2264 55,76.5C 54.0701,73.15 54.9035,70.3167 57.5,68C 57.2716,67.6012 56.9382,67.4346 56.5,67.5C 59.8726,58.582 58.8726,50.2486 53.5,42.5C 53.9175,41.7784 54.5842,41.2784 55.5,41C 52.0296,38.8771 52.0296,37.7105 55.5,37.5 Z"/></g>
<g><path style="opacity:1" fill="#b8b5b5" d="M 42.5,40.5 C 43.1667,40.5 43.8333,40.5 44.5,40.5C 44.5,40.8333 44.5,41.1667 44.5,41.5C 44.8417,42.3382 45.5084,42.6716 46.5,42.5C 46.5,42.8333 46.5,43.1667 46.5,43.5C 44.7497,44.6594 43.7497,46.326 43.5,48.5C 42.6091,47.7387 41.9424,46.7387 41.5,45.5C 43.6655,44.1196 43.9988,42.4529 42.5,40.5 Z"/></g>
<g><path style="opacity:1" fill="#c2b1a2" d="M 39.5,39.5 C 39.8333,39.5 40.1667,39.5 40.5,39.5C 41.1667,39.5 41.8333,39.5 42.5,39.5C 42.5,39.8333 42.5,40.1667 42.5,40.5C 38.8486,40.818 36.8486,42.818 36.5,46.5C 34.1143,45.0116 33.4476,45.3449 34.5,47.5C 31.693,50.0153 28.8596,50.0153 26,47.5C 24.8615,47.9891 23.6948,48.3225 22.5,48.5C 22.5,47.8333 22.5,47.1667 22.5,46.5C 23.791,46.7373 24.791,46.404 25.5,45.5C 28.1667,45.1667 28.1667,44.8333 25.5,44.5C 25.5,44.1667 25.5,43.8333 25.5,43.5C 25.5,43.1667 25.5,42.8333 25.5,42.5C 26.609,42.5569 27.609,42.8902 28.5,43.5C 30.7921,44.4684 32.9587,44.8018 35,44.5C 35.4643,43.9056 35.631,43.2389 35.5,42.5C 36.1667,42.5 36.5,42.1667 36.5,41.5C 37.1667,41.5 37.5,41.1667 37.5,40.5C 38.4916,40.6716 39.1583,40.3382 39.5,39.5 Z M 28.5,43.5 C 30.7203,43.5368 33.0536,43.2035 35.5,42.5C 35.631,43.2389 35.4643,43.9056 35,44.5C 32.9587,44.8018 30.7921,44.4684 28.5,43.5 Z"/></g>
<g><path style="opacity:1" fill="#f6e07e" d="M 34.5,47.5 C 35.391,48.1098 36.391,48.4431 37.5,48.5C 35.7857,49.7384 33.7857,50.405 31.5,50.5C 30.5,50.5 29.5,50.5 28.5,50.5C 25.9899,50.9465 23.9899,50.2798 22.5,48.5C 23.6948,48.3225 24.8615,47.9891 26,47.5C 28.8596,50.0153 31.693,50.0153 34.5,47.5 Z"/></g>
<g><path style="opacity:1" fill="#dedbda" d="M 9.5,44.5 C 8.40191,45.397 8.40191,46.2303 9.5,47C 11.8098,47.4966 14.1432,47.6633 16.5,47.5C 16.4828,49.5648 16.1495,51.5648 15.5,53.5C 14.8333,54.5 14.1667,55.5 13.5,56.5C 14.4669,51.6327 12.4669,49.466 7.5,50C 4.86683,47.0874 5.5335,45.2541 9.5,44.5 Z"/></g>
<g><path style="opacity:1" fill="#f4f1e1" d="M 28.5,50.5 C 29.5,50.5 30.5,50.5 31.5,50.5C 31.4326,51.9587 31.7659,53.2921 32.5,54.5C 30.8008,54.6602 29.1341,54.4935 27.5,54C 28.3366,52.9887 28.67,51.8221 28.5,50.5 Z"/></g>
<g><path style="opacity:1" fill="#fbf7f6" d="M 38.5,51.5 C 41.534,59.2054 39.2006,64.5387 31.5,67.5C 30.8333,67.5 30.5,67.1667 30.5,66.5C 31.5515,62.574 32.2182,58.574 32.5,54.5C 35.1125,53.9045 35.1125,53.0712 32.5,52C 34.4727,51.5045 36.4727,51.3379 38.5,51.5 Z"/></g>
<g><path style="opacity:1" fill="#f9f2f0" d="M 21.5,51.5 C 23.5273,51.3379 25.5273,51.5045 27.5,52C 24.8333,53.3333 24.8333,54.6667 27.5,56C 27.1667,56.3333 26.8333,56.6667 26.5,57C 28.0183,60.1349 29.3517,63.3016 30.5,66.5C 30.5,67.1667 30.8333,67.5 31.5,67.5C 31.5,67.8333 31.5,68.1667 31.5,68.5C 21.5837,66.3064 18.2504,60.6398 21.5,51.5 Z"/></g>
<g><path style="opacity:1" fill="#d2b174" d="M 37.5,48.5 C 38.9778,48.238 40.3112,48.5713 41.5,49.5C 41.3764,50.1067 41.0431,50.44 40.5,50.5C 39.5084,50.3284 38.8417,50.6618 38.5,51.5C 36.4727,51.3379 34.4727,51.5045 32.5,52C 35.1125,53.0712 35.1125,53.9045 32.5,54.5C 31.7659,53.2921 31.4326,51.9587 31.5,50.5C 33.7857,50.405 35.7857,49.7384 37.5,48.5 Z"/></g>
<g><path style="opacity:1" fill="#fcfcfc" d="M 12.5,56.5 C 11.4265,55.7494 11.2599,54.7494 12,53.5C 12.4828,54.448 12.6495,55.448 12.5,56.5 Z"/></g>
<g><path style="opacity:1" fill="#e6e1e0" d="M 55.5,37.5 C 55.5,37.1667 55.5,36.8333 55.5,36.5C 56.1667,36.5 56.8333,36.5 57.5,36.5C 58.1667,36.5 58.5,36.8333 58.5,37.5C 58.5,38.1667 58.8333,38.5 59.5,38.5C 60.1667,38.5 60.5,38.8333 60.5,39.5C 62.4599,39.8507 64.2932,41.184 66,43.5C 71.871,53.7707 71.871,63.7707 66,73.5C 64.2689,76.0681 62.1023,78.0681 59.5,79.5C 56.6072,79.6322 54.2739,80.7988 52.5,83C 50.5273,83.4955 48.5273,83.6621 46.5,83.5C 46.5,83.1667 46.5,82.8333 46.5,82.5C 50.62,81.2744 54.2867,79.2744 57.5,76.5C 59.8356,74.9962 61.669,72.9962 63,70.5C 67.7625,61.3535 67.5958,52.3535 62.5,43.5C 60.1667,41.5 57.8333,39.5 55.5,37.5 Z"/></g>
<g><path style="opacity:1" fill="#c6a97c" d="M 22.5,48.5 C 23.9899,50.2798 25.9899,50.9465 28.5,50.5C 28.67,51.8221 28.3366,52.9887 27.5,54C 29.1341,54.4935 30.8008,54.6602 32.5,54.5C 32.2182,58.574 31.5515,62.574 30.5,66.5C 29.3517,63.3016 28.0183,60.1349 26.5,57C 26.8333,56.6667 27.1667,56.3333 27.5,56C 24.8333,54.6667 24.8333,53.3333 27.5,52C 25.5273,51.5045 23.5273,51.3379 21.5,51.5C 21.1583,50.6618 20.4916,50.3284 19.5,50.5C 18.9569,50.44 18.6236,50.1067 18.5,49.5C 19.6888,48.5713 21.0222,48.238 22.5,48.5 Z"/></g>
<g><path style="opacity:1" fill="#dad7d7" d="M 12.5,58.5 C 12.5,58.8333 12.5,59.1667 12.5,59.5C 11.5084,59.3284 10.8417,59.6618 10.5,60.5C 9.5,60.5 8.5,60.5 7.5,60.5C 8.78041,59.0687 10.4471,58.4021 12.5,58.5 Z"/></g>
<g><path style="opacity:1" fill="#52494c" d="M 18.5,52.5 C 18.1113,56.4137 18.7779,60.0804 20.5,63.5C 19.5,63.5 18.5,63.5 17.5,63.5C 18.5981,62.603 18.5981,61.7697 17.5,61C 15.8455,60.3923 14.1789,59.8923 12.5,59.5C 12.5,59.1667 12.5,58.8333 12.5,58.5C 12.5,57.8333 12.5,57.1667 12.5,56.5C 12.8333,56.5 13.1667,56.5 13.5,56.5C 14.1667,55.5 14.8333,54.5 15.5,53.5C 16.609,53.4431 17.609,53.1098 18.5,52.5 Z"/></g>
<g><path style="opacity:1" fill="#999799" d="M 41.5,54.5 C 42.1667,54.5 42.8333,54.5 43.5,54.5C 42.0462,56.2633 42.3796,57.5967 44.5,58.5C 44.8333,58.5 45.1667,58.5 45.5,58.5C 46.9133,59.9348 48.58,60.9348 50.5,61.5C 46.9966,61.8711 43.9966,60.8711 41.5,58.5C 41.5,57.1667 41.5,55.8333 41.5,54.5 Z"/></g>
<g><path style="opacity:1" fill="#231c1f" d="M 41.5,58.5 C 43.9966,60.8711 46.9966,61.8711 50.5,61.5C 49.9993,65.4954 48.6659,69.1621 46.5,72.5C 45.5084,72.6716 44.8417,72.3382 44.5,71.5C 46.7895,68.9233 47.9562,65.9233 48,62.5C 45.1089,65.4025 43.2756,68.4025 42.5,71.5C 39.0417,72.7349 36.0417,74.7349 33.5,77.5C 33.1667,77.1667 32.8333,76.8333 32.5,76.5C 33.1925,75.4822 33.8592,74.4822 34.5,73.5C 40.1066,72.6258 41.4399,69.9592 38.5,65.5C 39.6586,63.1454 40.6586,60.8121 41.5,58.5 Z"/></g>
<g><path style="opacity:1" fill="#5a5355" d="M 7.5,61.5 C 7.5,61.1667 7.5,60.8333 7.5,60.5C 8.5,60.5 9.5,60.5 10.5,60.5C 11.3984,61.1577 12.3984,61.8243 13.5,62.5C 13.1667,63.5 12.5,64.1667 11.5,64.5C 10.3578,63.1738 9.02449,62.1738 7.5,61.5 Z"/></g>
<g><path style="opacity:1" fill="#ebebeb" d="M 7.5,60.5 C 7.5,60.8333 7.5,61.1667 7.5,61.5C 7.5,62.1667 7.5,62.8333 7.5,63.5C 8.16667,64.1667 8.83333,64.8333 9.5,65.5C 9.67158,66.4916 9.33825,67.1583 8.5,67.5C 8.16667,66.1667 7.83333,66.1667 7.5,67.5C 6.52066,66.2347 5.52066,64.9014 4.5,63.5C 4.87929,61.7869 5.87929,60.7869 7.5,60.5 Z"/></g>
<g><path style="opacity:1" fill="#e3584d" d="M 19.5,50.5 C 20.4916,50.3284 21.1583,50.6618 21.5,51.5C 18.2504,60.6398 21.5837,66.3064 31.5,68.5C 31.5,68.8333 31.5,69.1667 31.5,69.5C 26.7941,69.3153 23.1274,67.3153 20.5,63.5C 18.7779,60.0804 18.1113,56.4137 18.5,52.5C 18.8333,51.8333 19.1667,51.1667 19.5,50.5 Z"/></g>
<g><path style="opacity:1" fill="#191417" d="M 12.5,59.5 C 14.1789,59.8923 15.8455,60.3923 17.5,61C 18.5981,61.7697 18.5981,62.603 17.5,63.5C 15.7697,64.0256 14.4363,65.0256 13.5,66.5C 11.8049,67.8264 10.4716,67.4931 9.5,65.5C 8.83333,64.8333 8.16667,64.1667 7.5,63.5C 7.5,62.8333 7.5,62.1667 7.5,61.5C 9.02449,62.1738 10.3578,63.1738 11.5,64.5C 12.5,64.1667 13.1667,63.5 13.5,62.5C 12.3984,61.8243 11.3984,61.1577 10.5,60.5C 10.8417,59.6618 11.5084,59.3284 12.5,59.5 Z"/></g>
<g><path style="opacity:1" fill="#db554b" d="M 38.5,51.5 C 38.8417,50.6618 39.5084,50.3284 40.5,50.5C 41.2341,51.7079 41.5674,53.0413 41.5,54.5C 41.5,55.8333 41.5,57.1667 41.5,58.5C 40.6586,60.8121 39.6586,63.1454 38.5,65.5C 37.8333,65.5 37.5,65.8333 37.5,66.5C 35.7028,67.7298 33.7028,68.3964 31.5,68.5C 31.5,68.1667 31.5,67.8333 31.5,67.5C 39.2006,64.5387 41.534,59.2054 38.5,51.5 Z"/></g>
<g><path style="opacity:1" fill="#fcfdfc" d="M 4.5,70.5 C 3.83333,69.1667 3.83333,69.1667 4.5,70.5 Z"/></g>
<g><path style="opacity:1" fill="#484346" d="M 9.5,65.5 C 10.4716,67.4931 11.8049,67.8264 13.5,66.5C 14.2299,67.7124 15.2299,68.7124 16.5,69.5C 16.0431,70.2975 15.3764,70.6309 14.5,70.5C 14.1344,69.3054 13.301,68.6387 12,68.5C 10.0104,69.8182 8.01041,71.1515 6,72.5C 5.53566,71.9056 5.36899,71.2389 5.5,70.5C 6.16667,69.5 6.83333,68.5 7.5,67.5C 7.83333,67.5 8.16667,67.5 8.5,67.5C 9.33825,67.1583 9.67158,66.4916 9.5,65.5 Z"/></g>
<g><path style="opacity:1" fill="#8b8788" d="M 44.5,71.5 C 43.8333,71.5 43.1667,71.5 42.5,71.5C 43.2756,68.4025 45.1089,65.4025 48,62.5C 47.9562,65.9233 46.7895,68.9233 44.5,71.5 Z"/></g>
<g><path style="opacity:1" fill="#ecebeb" d="M 17.5,63.5 C 18.5,63.5 19.5,63.5 20.5,63.5C 23.1274,67.3153 26.7941,69.3153 31.5,69.5C 31.6716,70.4916 31.3382,71.1583 30.5,71.5C 29.8333,70.1667 29.1667,70.1667 28.5,71.5C 24.9746,71.6541 22.1413,70.3208 20,67.5C 19.7489,69.433 19.2489,71.2663 18.5,73C 15.1694,73.0794 12.1694,73.9127 9.5,75.5C 9.15829,74.6618 8.49162,74.3284 7.5,74.5C 9.34952,72.4284 11.6829,71.0951 14.5,70.5C 15.3764,70.6309 16.0431,70.2975 16.5,69.5C 15.2299,68.7124 14.2299,67.7124 13.5,66.5C 14.4363,65.0256 15.7697,64.0256 17.5,63.5 Z"/></g>
<g><path style="opacity:1" fill="#554f51" d="M 37.5,66.5 C 37.4142,67.4959 37.7476,68.3292 38.5,69C 34.681,69.8268 31.681,71.8268 29.5,75C 27.8425,75.7252 26.8425,75.2252 26.5,73.5C 27.1667,72.8333 27.8333,72.1667 28.5,71.5C 29.1667,71.5 29.8333,71.5 30.5,71.5C 31.3382,71.1583 31.6716,70.4916 31.5,69.5C 31.5,69.1667 31.5,68.8333 31.5,68.5C 33.7028,68.3964 35.7028,67.7298 37.5,66.5 Z"/></g>
<g><path style="opacity:1" fill="#ebe9e9" d="M 54.5,66.5 C 53.6618,66.8417 53.3284,67.5084 53.5,68.5C 52.1667,68.8333 52.1667,69.1667 53.5,69.5C 53.5,69.8333 53.5,70.1667 53.5,70.5C 53.5,71.1667 53.1667,71.5 52.5,71.5C 52.1667,70.1667 51.8333,70.1667 51.5,71.5C 50.8333,71.5 50.5,71.8333 50.5,72.5C 49.8333,72.5 49.5,72.8333 49.5,73.5C 48.1667,73.8333 48.1667,74.1667 49.5,74.5C 49.0269,75.9063 48.0269,76.573 46.5,76.5C 46.2172,75.7109 45.7172,75.0442 45,74.5C 42.7492,75.4123 40.5825,76.4123 38.5,77.5C 40.5718,74.8016 43.2384,73.1349 46.5,72.5C 48.6659,69.1621 49.9993,65.4954 50.5,61.5C 51.2216,61.0825 51.7216,60.4158 52,59.5C 53.9028,61.441 54.7361,63.7743 54.5,66.5 Z"/></g>
<g><path style="opacity:1" fill="#f28c80" d="M 51.5,71.5 C 51.8333,71.5 52.1667,71.5 52.5,71.5C 52.5,73.5 51.5,74.5 49.5,74.5C 49.5,74.1667 49.5,73.8333 49.5,73.5C 50.1667,73.5 50.5,73.1667 50.5,72.5C 51.1667,72.5 51.5,72.1667 51.5,71.5 Z"/></g>
<g><path style="opacity:1" fill="#fb231d" d="M 56.5,67.5 C 56.9382,67.4346 57.2716,67.6012 57.5,68C 54.9035,70.3167 54.0701,73.15 55,76.5C 55.9772,75.2264 56.8106,75.2264 57.5,76.5C 54.2867,79.2744 50.62,81.2744 46.5,82.5C 45.2597,81.3412 43.9264,80.3412 42.5,79.5C 44.2303,78.9744 45.5637,77.9744 46.5,76.5C 48.0269,76.573 49.0269,75.9063 49.5,74.5C 51.5,74.5 52.5,73.5 52.5,71.5C 53.1667,71.5 53.5,71.1667 53.5,70.5C 54.7281,69.6935 55.7281,68.6935 56.5,67.5 Z"/></g>
<g><path style="opacity:1" fill="#dcdcdc" d="M 38.5,65.5 C 41.4399,69.9592 40.1066,72.6258 34.5,73.5C 33.8592,74.4822 33.1925,75.4822 32.5,76.5C 32.8333,76.8333 33.1667,77.1667 33.5,77.5C 36.0417,74.7349 39.0417,72.7349 42.5,71.5C 43.1667,71.5 43.8333,71.5 44.5,71.5C 44.8417,72.3382 45.5084,72.6716 46.5,72.5C 43.2384,73.1349 40.5718,74.8016 38.5,77.5C 38.1667,78.1667 37.8333,78.8333 37.5,79.5C 33.4402,79.5153 29.4402,79.0153 25.5,78C 24.4468,76.2507 24.7801,74.7507 26.5,73.5C 26.8425,75.2252 27.8425,75.7252 29.5,75C 31.681,71.8268 34.681,69.8268 38.5,69C 37.7476,68.3292 37.4142,67.4959 37.5,66.5C 37.5,65.8333 37.8333,65.5 38.5,65.5 Z"/></g>
<g><path style="opacity:1" fill="#eed5d2" d="M 46.5,76.5 C 45.5637,77.9744 44.2303,78.9744 42.5,79.5C 41.8333,79.5 41.1667,79.5 40.5,79.5C 42.1815,77.9925 44.1815,76.9925 46.5,76.5 Z"/></g>
<g><path style="opacity:1" fill="#e7dddc" d="M 14.5,70.5 C 11.6829,71.0951 9.34952,72.4284 7.5,74.5C 7.84171,75.3382 8.50838,75.6716 9.5,75.5C 11.249,77.256 13.249,78.5894 15.5,79.5C 14.209,79.2627 13.209,79.596 12.5,80.5C 16.861,82.3297 21.1943,83.9963 25.5,85.5C 22.8333,85.5 20.1667,85.5 17.5,85.5C 8.64979,83.39 4.31645,78.39 4.5,70.5C 4.83333,70.5 5.16667,70.5 5.5,70.5C 5.36899,71.2389 5.53566,71.9056 6,72.5C 8.01041,71.1515 10.0104,69.8182 12,68.5C 13.301,68.6387 14.1344,69.3054 14.5,70.5 Z"/></g>
<g><path style="opacity:1" fill="#f83629" d="M 12.5,80.5 C 13.209,79.596 14.209,79.2627 15.5,79.5C 18.9118,81.6461 22.7451,82.6461 27,82.5C 30.76,82.5137 34.26,81.8471 37.5,80.5C 37.5,80.1667 37.5,79.8333 37.5,79.5C 38.5,79.5 39.5,79.5 40.5,79.5C 41.1667,79.5 41.8333,79.5 42.5,79.5C 43.9264,80.3412 45.2597,81.3412 46.5,82.5C 46.5,82.8333 46.5,83.1667 46.5,83.5C 39.5893,84.9927 32.5893,85.6593 25.5,85.5C 21.1943,83.9963 16.861,82.3297 12.5,80.5 Z"/></g>
<g><path style="opacity:1" fill="#e5c1c0" d="M 15.5,79.5 C 22.7643,81.5386 30.0977,81.8719 37.5,80.5C 34.26,81.8471 30.76,82.5137 27,82.5C 22.7451,82.6461 18.9118,81.6461 15.5,79.5 Z"/></g>
<g><path style="opacity:1" fill="#e8e7e7" d="M 59.5,79.5 C 54.7069,83.8966 49.0402,86.73 42.5,88C 36.5,88.6667 30.5,88.6667 24.5,88C 21.8091,87.8442 19.4758,87.0109 17.5,85.5C 20.1667,85.5 22.8333,85.5 25.5,85.5C 32.5893,85.6593 39.5893,84.9927 46.5,83.5C 48.5273,83.6621 50.5273,83.4955 52.5,83C 54.2739,80.7988 56.6072,79.6322 59.5,79.5 Z"/></g>
</svg>
