<svg width="950" height="240" viewBox="0 0 950 240" fill="none" xmlns="http://www.w3.org/2000/svg">
<path d="M0 0H80C146.274 0 200 53.7258 200 120C200 186.274 146.274 240 80 240H0V0Z" fill="#267DFF"/>
<g clip-path="url(#clip0_235_1258)">
<path d="M60.3947 177.475L68.0532 179.787L68.1351 179.516L68.1976 179.24L60.3947 177.475ZM192.027 28.7583L100.051 20.1737L138.604 104.12L192.027 28.7583ZM-47.9532 270.484C-3.71053 256.269 51.3593 235.08 68.0532 179.787L52.7361 175.163C38.7434 221.509 -7.70268 240.746 -52.8478 255.251L-47.9532 270.484ZM68.1976 179.24C78.862 132.092 99.3879 91.248 131.638 65.0176L121.542 52.605C85.5686 81.8638 63.728 126.476 52.5918 175.71L68.1976 179.24Z" fill="#267DFF"/>
</g>
<g clip-path="url(#clip1_235_1258)">
<path d="M60.3949 177.475L68.0534 179.787L68.1353 179.516L68.1977 179.24L60.3949 177.475ZM192.027 28.7586L100.051 20.1739L138.604 104.12L192.027 28.7586ZM-47.9531 270.485C-3.71035 256.269 51.3595 235.081 68.0534 179.787L52.7363 175.163C38.7436 221.509 -7.7025 240.746 -52.8476 255.252L-47.9531 270.485ZM68.1977 179.24C78.8622 132.092 99.3881 91.2482 131.638 65.0179L121.542 52.6052C85.5688 81.8641 63.7282 126.477 52.592 175.71L68.1977 179.24Z" fill="white"/>
</g>
<path d="M281.364 178H240.114V61.6364H281.705C293.409 61.6364 303.485 63.9659 311.932 68.625C320.379 73.2462 326.875 79.8939 331.42 88.5682C336.004 97.2424 338.295 107.621 338.295 119.705C338.295 131.826 336.004 142.242 331.42 150.955C326.875 159.667 320.341 166.352 311.818 171.011C303.333 175.67 293.182 178 281.364 178ZM264.716 156.92H280.341C287.614 156.92 293.731 155.633 298.693 153.057C303.693 150.443 307.443 146.409 309.943 140.955C312.481 135.462 313.75 128.379 313.75 119.705C313.75 111.106 312.481 104.08 309.943 98.625C307.443 93.1705 303.712 89.1553 298.75 86.5795C293.788 84.0038 287.67 82.7159 280.398 82.7159H264.716V156.92ZM380.952 179.648C375.384 179.648 370.421 178.682 366.065 176.75C361.709 174.78 358.262 171.883 355.724 168.057C353.224 164.193 351.974 159.383 351.974 153.625C351.974 148.777 352.865 144.705 354.645 141.409C356.425 138.114 358.849 135.462 361.918 133.455C364.986 131.447 368.471 129.932 372.372 128.909C376.312 127.886 380.44 127.167 384.759 126.75C389.834 126.22 393.925 125.727 397.031 125.273C400.137 124.78 402.391 124.061 403.793 123.114C405.194 122.167 405.895 120.765 405.895 118.909V118.568C405.895 114.97 404.759 112.186 402.486 110.216C400.251 108.246 397.069 107.261 392.94 107.261C388.584 107.261 385.118 108.227 382.543 110.159C379.967 112.053 378.262 114.439 377.429 117.318L355.043 115.5C356.179 110.197 358.414 105.614 361.747 101.75C365.08 97.8485 369.38 94.8561 374.645 92.7727C379.948 90.6515 386.084 89.5909 393.054 89.5909C397.902 89.5909 402.543 90.1591 406.974 91.2955C411.444 92.4318 415.402 94.1932 418.849 96.5795C422.334 98.9659 425.08 102.034 427.088 105.784C429.096 109.496 430.099 113.947 430.099 119.136V178H407.145V165.898H406.463C405.062 168.625 403.187 171.03 400.838 173.114C398.49 175.159 395.668 176.769 392.372 177.943C389.077 179.08 385.27 179.648 380.952 179.648ZM387.884 162.943C391.444 162.943 394.588 162.242 397.315 160.841C400.043 159.402 402.183 157.47 403.736 155.045C405.289 152.621 406.065 149.875 406.065 146.807V137.545C405.308 138.038 404.266 138.492 402.94 138.909C401.652 139.288 400.194 139.648 398.565 139.989C396.937 140.292 395.308 140.576 393.679 140.841C392.05 141.068 390.573 141.277 389.247 141.466C386.406 141.883 383.925 142.545 381.804 143.455C379.683 144.364 378.035 145.595 376.861 147.148C375.687 148.663 375.099 150.557 375.099 152.83C375.099 156.125 376.293 158.644 378.679 160.386C381.103 162.091 384.171 162.943 387.884 162.943ZM521.491 115.614L499.332 116.977C498.954 115.083 498.139 113.379 496.889 111.864C495.639 110.311 493.991 109.08 491.946 108.17C489.938 107.223 487.533 106.75 484.73 106.75C480.98 106.75 477.817 107.545 475.241 109.136C472.666 110.689 471.378 112.773 471.378 115.386C471.378 117.47 472.211 119.231 473.878 120.67C475.545 122.11 478.404 123.265 482.457 124.136L498.253 127.318C506.738 129.061 513.063 131.864 517.23 135.727C521.397 139.591 523.48 144.667 523.48 150.955C523.48 156.674 521.795 161.693 518.423 166.011C515.09 170.33 510.507 173.701 504.673 176.125C498.878 178.511 492.192 179.705 484.616 179.705C473.063 179.705 463.859 177.299 457.003 172.489C450.185 167.64 446.188 161.049 445.014 152.716L468.821 151.466C469.541 154.989 471.283 157.678 474.048 159.534C476.813 161.352 480.355 162.261 484.673 162.261C488.916 162.261 492.325 161.447 494.901 159.818C497.514 158.152 498.84 156.011 498.878 153.398C498.84 151.201 497.912 149.402 496.094 148C494.276 146.561 491.473 145.462 487.685 144.705L472.571 141.693C464.048 139.989 457.704 137.034 453.537 132.83C449.408 128.625 447.344 123.265 447.344 116.75C447.344 111.144 448.859 106.314 451.889 102.261C454.957 98.2083 459.257 95.0833 464.787 92.8864C470.355 90.6894 476.87 89.5909 484.332 89.5909C495.355 89.5909 504.029 91.9205 510.355 96.5795C516.719 101.239 520.431 107.583 521.491 115.614ZM562.926 127.545V178H538.722V61.6364H562.244V106.125H563.267C565.237 100.973 568.419 96.9394 572.812 94.0227C577.206 91.0682 582.718 89.5909 589.347 89.5909C595.407 89.5909 600.691 90.9167 605.199 93.5682C609.744 96.1818 613.267 99.9508 615.767 104.875C618.305 109.761 619.555 115.614 619.517 122.432V178H595.312V126.75C595.35 121.371 593.987 117.186 591.222 114.193C588.494 111.201 584.669 109.705 579.744 109.705C576.449 109.705 573.532 110.405 570.994 111.807C568.494 113.208 566.525 115.254 565.085 117.943C563.684 120.595 562.964 123.795 562.926 127.545ZM639.02 178V61.6364H663.622V109.648H713.565V61.6364H738.111V178H713.565V129.932H663.622V178H639.02ZM813.906 140.841V90.7273H838.111V178H814.872V162.148H813.963C811.993 167.261 808.717 171.371 804.134 174.477C799.588 177.583 794.039 179.136 787.486 179.136C781.652 179.136 776.52 177.811 772.088 175.159C767.656 172.508 764.19 168.739 761.69 163.852C759.228 158.966 757.978 153.114 757.94 146.295V90.7273H782.145V141.977C782.183 147.129 783.565 151.201 786.293 154.193C789.02 157.186 792.675 158.682 797.259 158.682C800.175 158.682 802.902 158.019 805.44 156.693C807.978 155.33 810.024 153.322 811.577 150.67C813.168 148.019 813.944 144.742 813.906 140.841ZM857.926 178V61.6364H882.131V105.386H882.869C883.93 103.038 885.464 100.652 887.472 98.2273C889.517 95.7652 892.169 93.7197 895.426 92.0909C898.722 90.4242 902.813 89.5909 907.699 89.5909C914.063 89.5909 919.934 91.2576 925.312 94.5909C930.691 97.8864 934.991 102.867 938.21 109.534C941.43 116.163 943.04 124.477 943.04 134.477C943.04 144.212 941.468 152.432 938.324 159.136C935.218 165.803 930.975 170.86 925.597 174.307C920.256 177.716 914.271 179.42 907.642 179.42C902.945 179.42 898.949 178.644 895.653 177.091C892.396 175.538 889.725 173.587 887.642 171.239C885.559 168.852 883.968 166.447 882.869 164.023H881.79V178H857.926ZM881.619 134.364C881.619 139.553 882.339 144.08 883.778 147.943C885.218 151.807 887.301 154.818 890.028 156.977C892.756 159.098 896.07 160.159 899.972 160.159C903.911 160.159 907.244 159.08 909.972 156.92C912.699 154.723 914.763 151.693 916.165 147.83C917.604 143.928 918.324 139.439 918.324 134.364C918.324 129.326 917.623 124.894 916.222 121.068C914.82 117.242 912.756 114.25 910.028 112.091C907.301 109.932 903.949 108.852 899.972 108.852C896.032 108.852 892.699 109.894 889.972 111.977C887.282 114.061 885.218 117.015 883.778 120.841C882.339 124.667 881.619 129.174 881.619 134.364Z" fill="#050C17"/>
<defs>
<clipPath id="clip0_235_1258">
<rect width="200" height="240" fill="white"/>
</clipPath>
<clipPath id="clip1_235_1258">
<path d="M0 0H80C146.274 0 200 53.7258 200 120C200 186.274 146.274 240 80 240H0V0Z" fill="white"/>
</clipPath>
</defs>
</svg>
