<svg width="200" height="240" viewBox="0 0 200 240" fill="none" xmlns="http://www.w3.org/2000/svg">
<path d="M0 0H80C146.274 0 200 53.7258 200 120V120C200 186.274 146.274 240 80 240H0V0Z" fill="#267DFF"/>
<g clip-path="url(#clip0_235_1277)">
<path d="M60.3947 177.475L68.0532 179.787L68.1351 179.516L68.1976 179.24L60.3947 177.475ZM192.027 28.7584L100.051 20.1737L138.604 104.12L192.027 28.7584ZM-47.9532 270.484C-3.71053 256.269 51.3593 235.08 68.0532 179.787L52.7361 175.163C38.7434 221.509 -7.70268 240.746 -52.8478 255.251L-47.9532 270.484ZM68.1976 179.24C78.862 132.092 99.3879 91.248 131.638 65.0177L121.542 52.605C85.5686 81.8639 63.728 126.476 52.5918 175.71L68.1976 179.24Z" fill="#267DFF"/>
</g>
<g clip-path="url(#clip1_235_1277)">
<path d="M60.3949 177.475L68.0534 179.787L68.1353 179.516L68.1977 179.24L60.3949 177.475ZM192.027 28.7586L100.051 20.1739L138.604 104.12L192.027 28.7586ZM-47.9531 270.485C-3.71035 256.269 51.3595 235.081 68.0534 179.787L52.7363 175.163C38.7436 221.509 -7.7025 240.746 -52.8476 255.252L-47.9531 270.485ZM68.1977 179.24C78.8622 132.092 99.3881 91.2482 131.638 65.0179L121.542 52.6052C85.5688 81.8641 63.7282 126.477 52.592 175.71L68.1977 179.24Z" fill="white"/>
</g>
<defs>
<clipPath id="clip0_235_1277">
<rect width="200" height="240" fill="white"/>
</clipPath>
<clipPath id="clip1_235_1277">
<path d="M0 0H80C146.274 0 200 53.7258 200 120V120C200 186.274 146.274 240 80 240H0V0Z" fill="white"/>
</clipPath>
</defs>
</svg>
